<svg width="24" height="23" viewBox="0 0 24 23" fill="none" xmlns="http://www.w3.org/2000/svg">
<mask id="mask0_1005_20" style="mask-type:luminance" maskUnits="userSpaceOnUse" x="0" y="0" width="24" height="23">
<path d="M23.1952 23V0H0.195221V23H23.1952Z" fill="white"/>
</mask>
<g mask="url(#mask0_1005_20)">
<path opacity="0.2" d="M15.2889 19.8125C13.1921 19.8125 11.1811 18.9795 9.69841 17.4968C8.2157 16.0141 7.38272 14.0031 7.38272 11.9063C7.38272 9.8094 8.2157 7.7984 9.69841 6.31569C11.1811 4.83298 13.1921 4 15.289 4L15.2889 19.8125Z" fill="#0EA5E9"/>
<path d="M16.0077 22.2813V0.71875C16.0077 0.52813 15.932 0.34531 15.7972 0.21052C15.6624 0.07573 15.4796 0 15.289 0C12.239 0 9.31391 1.2116 7.15724 3.36827C5.00057 5.52494 3.78897 8.45001 3.78897 11.5C3.78897 14.55 5.00057 17.4751 7.15724 19.6317C9.31391 21.7884 12.239 23 15.2889 23C15.4796 23 15.6624 22.9243 15.7972 22.7895C15.932 22.6547 16.0077 22.4719 16.0077 22.2813ZM9.72674 6.95391L13.5541 10.7813H8.13741C8.27777 9.3766 8.83078 8.04483 9.72674 6.95391ZM10.7429 5.93777C11.8338 5.04181 13.1655 4.4888 14.5702 4.34844V9.7651L10.7429 5.93777ZM13.5541 12.2188L9.72674 16.0461C8.83078 14.9552 8.27777 13.6234 8.13741 12.2188H13.5541ZM10.7429 17.0622L14.5702 13.2349V18.6516C13.1655 18.5112 11.8338 17.9582 10.7429 17.0622ZM5.22647 11.5C5.2295 8.95651 6.19435 6.50827 7.92739 4.64657C9.66044 2.78488 12.0334 1.64749 14.5702 1.46266V2.90555C12.4159 3.08734 10.4085 4.07155 8.94544 5.66325C7.4824 7.25495 6.67048 9.3381 6.67048 11.5C6.67048 13.6619 7.4824 15.745 8.94544 17.3367C10.4085 18.9285 12.4159 19.9127 14.5702 20.0945V21.5373C12.0334 21.3525 9.66044 20.2151 7.92739 18.3534C6.19435 16.4917 5.2295 14.0435 5.22647 11.5Z" fill="#0EA5E9"/>
</g>
</svg>
