<svg width="116" height="23" viewBox="0 0 116 23" fill="none" xmlns="http://www.w3.org/2000/svg">
<mask id="mask0_996_13" style="mask-type:luminance" maskUnits="userSpaceOnUse" x="0" y="0" width="24" height="23">
<path d="M23.1952 23V0L0.195221 0V23H23.1952Z" fill="white"/>
</mask>
<g mask="url(#mask0_996_13)">
<path opacity="0.2" d="M15.2889 19.8125C13.1921 19.8125 11.1811 18.9795 9.69841 17.4968C8.2157 16.0141 7.38272 14.0031 7.38272 11.9063C7.38272 9.8094 8.2157 7.7984 9.69841 6.31569C11.1811 4.83298 13.1921 4 15.289 4L15.2889 19.8125Z" fill="#0EA5E9"/>
<path d="M16.0077 22.2813V0.71875C16.0077 0.52813 15.932 0.34531 15.7972 0.21052C15.6624 0.07573 15.4796 0 15.289 0C12.239 0 9.31391 1.2116 7.15724 3.36827C5.00057 5.52494 3.78897 8.45001 3.78897 11.5C3.78897 14.55 5.00057 17.4751 7.15724 19.6317C9.31391 21.7884 12.239 23 15.2889 23C15.4796 23 15.6624 22.9243 15.7972 22.7895C15.932 22.6547 16.0077 22.4719 16.0077 22.2813ZM9.72674 6.95391L13.5541 10.7813H8.13741C8.27777 9.3766 8.83078 8.04483 9.72674 6.95391ZM10.7429 5.93777C11.8338 5.04181 13.1655 4.4888 14.5702 4.34844V9.7651L10.7429 5.93777ZM13.5541 12.2188L9.72674 16.0461C8.83078 14.9552 8.27777 13.6234 8.13741 12.2188H13.5541ZM10.7429 17.0622L14.5702 13.2349V18.6516C13.1655 18.5112 11.8338 17.9582 10.7429 17.0622ZM5.22647 11.5C5.2295 8.95651 6.19435 6.50827 7.92739 4.64657C9.66044 2.78488 12.0334 1.64749 14.5702 1.46266V2.90555C12.4159 3.08734 10.4085 4.07155 8.94544 5.66325C7.4824 7.25495 6.67048 9.3381 6.67048 11.5C6.67048 13.6619 7.4824 15.745 8.94544 17.3367C10.4085 18.9285 12.4159 19.9127 14.5702 20.0945V21.5373C12.0334 21.3525 9.66044 20.2151 7.92739 18.3534C6.19435 16.4917 5.2295 14.0435 5.22647 11.5Z" fill="#0EA5E9"/>
</g>
<path d="M32.4434 10.6953C31.6687 10.181 30.793 9.8913 29.8164 9.8262H29.8067C29.1882 9.7806 28.6966 9.5885 28.3321 9.25C27.961 8.91146 27.795 8.49805 27.834 8.00977C27.8666 7.52148 28.0879 7.13411 28.4981 6.84766C28.9082 6.56771 29.4226 6.45052 30.0411 6.49609C30.5554 6.52865 31.0371 6.75651 31.4864 7.17969C31.7403 7.41406 32.043 7.52474 32.3946 7.51172C32.7396 7.50521 33.0293 7.375 33.2637 7.12109C33.5046 6.86719 33.6185 6.56771 33.6055 6.22266C33.5925 5.87109 33.459 5.57812 33.2051 5.34375C32.8015 4.96615 32.4043 4.67643 32.0137 4.47461C31.4799 4.19466 30.8809 4.0319 30.2168 3.98633C28.9082 3.89518 27.7884 4.21745 26.8575 4.95312C25.92 5.68229 25.4089 6.64258 25.3243 7.83398C25.2396 9.0189 25.6075 10.041 26.4278 10.9004C27.2481 11.7598 28.3158 12.235 29.6309 12.3262C30.1778 12.3652 30.6563 12.5215 31.0664 12.7949C31.2552 12.9186 31.392 13.0651 31.4766 13.2344C31.5938 13.4622 31.6394 13.765 31.6133 14.1426C31.5808 14.6309 31.3594 15.015 30.9493 15.2949C30.5391 15.5814 30.0248 15.7018 29.4063 15.6562C28.8203 15.6172 28.3483 15.4154 27.9903 15.0508C27.7494 14.8034 27.4532 14.6797 27.1016 14.6797C26.7565 14.6797 26.4603 14.8001 26.2129 15.041C25.972 15.2884 25.8483 15.5846 25.8418 15.9297C25.8418 16.2747 25.9655 16.571 26.2129 16.8184C27.0137 17.6257 28.0196 18.0716 29.2305 18.1562C30.5391 18.2539 31.6589 17.9349 32.5899 17.1992C33.5274 16.4635 34.0384 15.5033 34.1231 14.3184C34.2338 12.7168 33.6739 11.5091 32.4434 10.6953ZM38.7618 15.4902V5.40234C38.7618 5.05078 38.6381 4.75456 38.3907 4.51367C38.1498 4.26628 37.8568 4.14258 37.5118 4.14258C37.1602 4.14258 36.864 4.26628 36.6231 4.51367C36.3757 4.75456 36.252 5.05078 36.252 5.40234V16.7402C36.252 17.0918 36.3757 17.388 36.6231 17.6289C36.864 17.8763 37.1602 18 37.5118 18H43.2539C43.599 18 43.8952 17.8763 44.1426 17.6289C44.3835 17.388 44.5039 17.0918 44.5039 16.7402C44.5039 16.3952 44.3835 16.099 44.1426 15.8516C43.8952 15.6107 43.599 15.4902 43.2539 15.4902H38.7618ZM47.7266 4.14258C47.375 4.14258 47.0788 4.26628 46.8379 4.51367C46.5905 4.75456 46.4668 5.05078 46.4668 5.40234V16.7402C46.4668 17.0918 46.5905 17.388 46.8379 17.6289C47.0788 17.8763 47.375 18 47.7266 18C48.0716 18 48.3646 17.8763 48.6055 17.6289C48.8529 17.388 48.9766 17.0918 48.9766 16.7402V5.40234C48.9766 5.05078 48.8529 4.75456 48.6055 4.51367C48.3646 4.26628 48.0716 4.14258 47.7266 4.14258ZM60.5684 14.4746C59.6895 15.2754 58.6576 15.6758 57.4727 15.6758C56.2032 15.6758 55.1159 15.2266 54.211 14.3281C53.3125 13.4232 52.8633 12.3359 52.8633 11.0664C52.8633 9.7969 53.3125 8.71289 54.211 7.81445C55.1159 6.91602 56.2032 6.4668 57.4727 6.4668C58.573 6.4668 59.5463 6.81836 60.3926 7.52148C60.6661 7.74284 60.9753 7.83724 61.3203 7.80469C61.6654 7.76562 61.9453 7.61263 62.1602 7.3457C62.3815 7.07878 62.4759 6.77279 62.4434 6.42773C62.4108 6.08268 62.2611 5.79948 61.9942 5.57812C60.6856 4.4974 59.1784 3.95703 57.4727 3.95703C55.5065 3.95703 53.8301 4.65039 52.4434 6.03711C51.0502 7.43034 50.3535 9.1068 50.3535 11.0664C50.3535 13.0326 51.0502 14.709 52.4434 16.0957C53.8301 17.4889 55.5065 18.1855 57.4727 18.1855C59.3021 18.1855 60.8939 17.5703 62.2481 16.3398C62.5085 16.1055 62.6452 15.8158 62.6582 15.4707C62.6778 15.1191 62.5703 14.8164 62.336 14.5625C62.1016 14.3086 61.8119 14.1719 61.4668 14.1523C61.1218 14.1393 60.8223 14.2467 60.5684 14.4746ZM72.4825 6.65234C72.834 6.65234 73.1302 6.52865 73.3711 6.28125C73.6185 6.04036 73.7422 5.7474 73.7422 5.40234C73.7422 5.05078 73.6185 4.75456 73.3711 4.51367C73.1302 4.26628 72.834 4.14258 72.4825 4.14258H65.9102C65.5586 4.14258 65.2624 4.26628 65.0215 4.51367C64.7741 4.75456 64.6504 5.05078 64.6504 5.40234V16.7402C64.6504 17.0918 64.7741 17.388 65.0215 17.6289C65.2624 17.8763 65.5586 18 65.9102 18H72.4825C72.834 18 73.1302 17.8763 73.3711 17.6289C73.6185 17.388 73.7422 17.0918 73.7422 16.7402C73.7422 16.3952 73.6185 16.099 73.3711 15.8516C73.1302 15.6107 72.834 15.4902 72.4825 15.4902H67.1602V12.2969H71.2032C71.5547 12.2969 71.8509 12.1732 72.0918 11.9258C72.3392 11.6849 72.4629 11.3887 72.4629 11.0371C72.4629 10.6921 72.3392 10.3991 72.0918 10.1582C71.8509 9.9108 71.5547 9.7871 71.2032 9.7871H67.1602V6.65234H72.4825ZM78.2149 15.4902V6.65234H81.0957C82.3002 6.65885 83.3321 7.09505 84.1914 7.96094C85.0508 8.82682 85.4805 9.862 85.4805 11.0664C85.4805 12.2708 85.0541 13.306 84.2012 14.1719C83.3418 15.0378 82.3067 15.4772 81.0957 15.4902H78.2149ZM76.9649 4.14258C76.6133 4.14258 76.3171 4.26302 76.0762 4.50391C75.8288 4.7513 75.7051 5.04753 75.7051 5.39258V5.41211V16.7305V16.7402C75.7051 17.0918 75.8288 17.388 76.0762 17.6289C76.3171 17.8763 76.6133 18 76.9649 18H81.1446C83.0326 17.9805 84.6439 17.2936 85.9785 15.9395C87.3262 14.5788 88 12.9544 88 11.0664C88 9.1719 87.3262 7.54753 85.9785 6.19336C84.6309 4.83919 83.0065 4.1556 81.1055 4.14258H76.9649Z" fill="white"/>
<path d="M95.14 2.6C96.172 2.6 96.952 2.812 97.48 3.236C98.008 3.66 98.272 4.284 98.272 5.108C98.272 5.652 98.136 6.132 97.864 6.548C97.592 6.956 97.204 7.272 96.7 7.496C96.204 7.712 95.628 7.82 94.972 7.82H94.072V9.596H94.288C94.632 9.596 94.804 9.752 94.804 10.064V10.532C94.804 10.844 94.632 11 94.288 11H92.176C92.016 11 91.888 10.964 91.792 10.892C91.696 10.812 91.648 10.692 91.648 10.532V10.064C91.648 9.904 91.696 9.788 91.792 9.716C91.888 9.636 92.016 9.596 92.176 9.596H92.392V4.004H92.176C92.016 4.004 91.888 3.968 91.792 3.896C91.696 3.816 91.648 3.696 91.648 3.536V3.068C91.648 2.908 91.696 2.792 91.792 2.72C91.888 2.64 92.012 2.6 92.164 2.6H95.14ZM94.912 6.416C95.48 6.416 95.896 6.316 96.16 6.116C96.424 5.908 96.556 5.584 96.556 5.144C96.556 4.752 96.436 4.464 96.196 4.28C95.956 4.096 95.584 4.004 95.08 4.004H94.072V6.416H94.912ZM106.497 9.596C106.849 9.596 107.025 9.752 107.025 10.064V10.532C107.025 10.692 106.977 10.812 106.881 10.892C106.785 10.964 106.657 11 106.497 11H105.129C105.041 11 104.957 10.98 104.877 10.94C104.805 10.892 104.749 10.828 104.709 10.748L103.533 8.672C103.365 8.384 103.225 8.176 103.113 8.048C103.009 7.912 102.889 7.824 102.753 7.784C102.625 7.736 102.445 7.712 102.213 7.712H101.877V9.596H102.093C102.437 9.596 102.609 9.752 102.609 10.064V10.532C102.609 10.844 102.437 11 102.093 11H99.9807C99.8207 11 99.6927 10.964 99.5967 10.892C99.5007 10.812 99.4527 10.692 99.4527 10.532V10.064C99.4527 9.904 99.5007 9.788 99.5967 9.716C99.6927 9.636 99.8207 9.596 99.9807 9.596H100.197V4.004H99.9807C99.8207 4.004 99.6927 3.968 99.5967 3.896C99.5007 3.816 99.4527 3.696 99.4527 3.536V3.068C99.4527 2.908 99.5007 2.792 99.5967 2.72C99.6927 2.64 99.8167 2.6 99.9687 2.6H102.909C103.941 2.6 104.721 2.804 105.249 3.212C105.777 3.62 106.041 4.224 106.041 5.024C106.041 5.576 105.893 6.048 105.597 6.44C105.301 6.824 104.889 7.104 104.361 7.28C104.505 7.344 104.633 7.444 104.745 7.58C104.865 7.708 104.989 7.884 105.117 8.108L105.945 9.596H106.497ZM102.765 6.308C103.309 6.308 103.705 6.208 103.953 6.008C104.201 5.8 104.325 5.48 104.325 5.048C104.325 4.696 104.205 4.436 103.965 4.268C103.725 4.092 103.353 4.004 102.849 4.004H101.877V6.308H102.765ZM111.389 11.12C110.613 11.12 109.941 10.952 109.373 10.616C108.813 10.28 108.381 9.796 108.077 9.164C107.781 8.532 107.633 7.78 107.633 6.908C107.633 6.004 107.793 5.22 108.113 4.556C108.433 3.892 108.885 3.38 109.469 3.02C110.061 2.66 110.757 2.48 111.557 2.48C112.325 2.48 112.989 2.648 113.549 2.984C114.109 3.32 114.537 3.804 114.833 4.436C115.137 5.068 115.289 5.82 115.289 6.692C115.289 7.588 115.129 8.372 114.809 9.044C114.497 9.708 114.045 10.22 113.453 10.58C112.869 10.94 112.181 11.12 111.389 11.12ZM111.401 9.716C112.113 9.716 112.653 9.464 113.021 8.96C113.389 8.448 113.573 7.692 113.573 6.692C113.573 4.82 112.893 3.884 111.533 3.884C110.821 3.884 110.281 4.14 109.913 4.652C109.545 5.156 109.361 5.9 109.361 6.884C109.361 8.772 110.041 9.716 111.401 9.716Z" fill="white"/>
</svg>
